<?xml version="1.0" standalone="no"?>
<!DOCTYPE svg PUBLIC "-//W3C//DTD SVG 20010904//EN"
 "http://www.w3.org/TR/2001/REC-SVG-20010904/DTD/svg10.dtd">
<svg version="1.0" xmlns="http://www.w3.org/2000/svg"
 width="603.000000pt" height="603.000000pt" viewBox="0 0 603.000000 603.000000"
 preserveAspectRatio="xMidYMid meet">
<metadata>
Created by potrace 1.10, written by Peter Selinger 2001-2011
</metadata>
<g transform="translate(0.000000,603.000000) scale(0.100000,-0.100000)"
fill="#435da7" stroke="none">
<path d="M265 5982 c-36 -2 -91 -23 -120 -45 -59 -44 -115 -121 -115 -159 0
-13 -7 -36 -15 -52 -13 -25 -15 -352 -15 -2727 0 -1515 4 -2700 9 -2703 4 -3
11 -27 15 -53 9 -61 46 -115 120 -173 l58 -45 2793 0 c2646 0 2794 1 2812 17
11 10 24 18 30 18 21 0 93 81 118 131 l25 53 0 2758 0 2758 -31 57 c-27 50
-57 84 -104 120 -6 4 -27 16 -47 27 -35 18 -126 18 -2765 20 -1500 0 -2746 0
-2768 -2z m2119 -817 c55 -23 93 -62 110 -113 14 -39 16 -128 16 -629 l0 -583
490 0 490 0 0 608 0 608 24 32 c32 45 66 72 87 72 10 0 21 5 24 10 4 7 248 10
699 10 760 0 732 2 795 -60 17 -17 35 -49 41 -70 7 -26 9 -276 8 -742 l-3
-704 -33 -42 c-19 -23 -40 -42 -47 -42 -7 0 -18 -7 -25 -15 -11 -13 -92 -15
-616 -15 l-604 0 0 -490 0 -490 600 0 c554 0 603 -1 628 -17 47 -30 89 -77 96
-106 10 -43 8 -1397 -3 -1433 -15 -53 -41 -83 -94 -109 l-50 -26 -702 3 -702
3 -45 35 c-84 63 -78 14 -78 694 l0 605 -484 0 c-408 0 -485 -2 -490 -14 -3
-8 -5 -273 -6 -589 0 -499 -2 -579 -16 -613 -21 -51 -50 -81 -101 -104 -40
-18 -73 -19 -735 -19 l-693 1 -40 23 c-22 12 -55 42 -72 65 l-33 43 0 2045 0
2046 22 36 c29 47 66 81 89 81 10 0 21 5 24 10 4 7 248 10 699 10 600 0 698
-2 730 -15z"/>
<path d="M1170 2995 l0 -1825 490 0 490 0 0 595 c0 650 -3 619 58 686 54 62
30 60 684 59 l598 0 0 490 0 490 -601 0 -602 0 -36 22 c-44 27 -80 67 -81 89
0 8 -4 19 -10 25 -6 6 -11 226 -12 599 l-3 590 -487 3 -488 2 0 -1825z"/>
<path d="M3838 4334 c-2 -267 -1 -488 1 -490 2 -2 224 -4 493 -4 l488 0 -2
488 -3 487 -487 3 -488 2 -2 -486z"/>
<path d="M3840 1665 l0 -495 490 0 490 0 0 480 c0 264 -3 487 -6 495 -5 13
-69 15 -490 15 l-484 0 0 -495z"/>
</g>
</svg>
